<?xml version="1.0" standalone="no"?>
<!DOCTYPE svg PUBLIC "-//W3C//DTD SVG 20010904//EN"
 "http://www.w3.org/TR/2001/REC-SVG-20010904/DTD/svg10.dtd">
<svg version="1.0" xmlns="http://www.w3.org/2000/svg"
 width="700.000000pt" height="700.000000pt" viewBox="0 0 700.000000 700.000000"
 preserveAspectRatio="xMidYMid meet">
<metadata>
Created by potrace 1.14, written by Peter Selinger 2001-2017
</metadata>
<g transform="translate(0.000000,700.000000) scale(0.100000,-0.100000)"
fill="#000000" stroke="none">
<path d="M5858 6917 c-32 -33 -150 -158 -303 -321 -202 -215 -215 -228 -258
-273 l-40 -42 1 -3113 c0 -1712 1 -3116 1 -3121 1 -4 262 -6 581 -5 l581 3 0
3130 c-1 1722 -1 3191 -1 3266 l0 135 -102 70 c-57 38 -176 120 -265 181 -90
62 -165 113 -167 113 -3 0 -15 -11 -28 -23z"/>
<path d="M4818 5300 c-21 -23 -80 -88 -133 -144 -52 -57 -103 -112 -112 -123
-16 -17 -120 -132 -218 -238 -16 -18 -68 -74 -115 -126 -140 -154 -213 -224
-255 -244 -50 -24 -159 -29 -223 -10 -25 8 -48 12 -51 9 -3 -3 -6 -984 -6
-2180 0 -1925 2 -2174 15 -2175 71 -4 1124 -3 1131 2 5 3 8 1072 7 2639 l-3
2633 -37 -43z"/>
<path d="M2130 2594 l0 -2554 580 0 c319 0 581 3 581 8 4 26 3 4665 -1 4671
-4 6 -114 48 -215 83 -16 5 -39 14 -50 19 -11 5 -139 52 -285 105 -146 54
-299 109 -340 124 -41 16 -119 44 -172 63 l-98 35 0 -2554z"/>
<path d="M1157 4232 l-567 -567 0 -1813 0 -1812 573 2 572 3 0 2373 c0 1306
-3 2375 -6 2377 -3 2 -260 -251 -572 -563z"/>
</g>
</svg>
